PathFileType	4	(X/Y/Z)	C:\Users\Basilio\Documents\Thesis Gigler\squatting_fais\c3dfiles\076\SLS_front_pre4\markers_experimental.trc
DataRate	CameraRate	NumFrames	NumMarkers	Units	OrigDataRate	OrigDataStartFrame	OrigNumFrames
200.000000	200.000000	4	61	mm	200.000000	1418	1621
Frame#	Time	FHD			LBHD			RBHD			C7			T10			CLAV			LSHO			LUUPA			LMUPA			LDUPA			LLEP			LMEP			LRAD			LUL			LRFIN			RSHO			RUPA1			RMUPA			RDUPA			RLEP			RMEP			RRAD			RUL			RUFIN			RASI			USACR			LSACR			RSACR			LTHI1			LTHI2			LTHI3			LTHI4			LLFC			LMFC			LTIB1			LTIB2			LTIB3			LTIB4			LLMAL			LMMAL			LHEE			LMT1			LMT2			LMT5			RTHI			RTHI2			RTHI3			RTHI4			RLFC			RMFC			RTIB1			RTIB2			RTIB3			RTIB4			RLMAL			RMMAL			RHEE			RMT1			RMT2			RMT5			LASI			
		X1	Y1	Z1	X2	Y2	Z2	X3	Y3	Z3	X4	Y4	Z4	X5	Y5	Z5	X6	Y6	Z6	X7	Y7	Z7	X8	Y8	Z8	X9	Y9	Z9	X10	Y10	Z10	X11	Y11	Z11	X12	Y12	Z12	X13	Y13	Z13	X14	Y14	Z14	X15	Y15	Z15	X16	Y16	Z16	X17	Y17	Z17	X18	Y18	Z18	X19	Y19	Z19	X20	Y20	Z20	X21	Y21	Z21	X22	Y22	Z22	X23	Y23	Z23	X24	Y24	Z24	X25	Y25	Z25	X26	Y26	Z26	X27	Y27	Z27	X28	Y28	Z28	X29	Y29	Z29	X30	Y30	Z30	X31	Y31	Z31	X32	Y32	Z32	X33	Y33	Z33	X34	Y34	Z34	X35	Y35	Z35	X36	Y36	Z36	X37	Y37	Z37	X38	Y38	Z38	X39	Y39	Z39	X40	Y40	Z40	X41	Y41	Z41	X42	Y42	Z42	X43	Y43	Z43	X44	Y44	Z44	X45	Y45	Z45	X46	Y46	Z46	X47	Y47	Z47	X48	Y48	Z48	X49	Y49	Z49	X50	Y50	Z50	X51	Y51	Z51	X52	Y52	Z52	X53	Y53	Z53	X54	Y54	Z54	X55	Y55	Z55	X56	Y56	Z56	X57	Y57	Z57	X58	Y58	Z58	X59	Y59	Z59	X60	Y60	Z60	X61	Y61	Z61	

1419	7.09	-267.7807617187501	1656.264282226563	-1032.836303710938	-390.8181762695314	1572.990356445313	-1140.723266601563	-391.3221130371095	1579.389526367188	-988.8001708984377	-432.0156860351564	1452.146484375	-1061.283935546875	-439.4322814941407	1132.888549804688	-1066.576171875	-295.0788269042969	1382.225219726563	-1056.899536132813	-356.0626220703126	1389.889770507813	-1241.264282226563	-361.1748657226563	1183.043579101563	-1298.653198242188	-330.2115173339844	1156.292602539063	-1271.330078125	-363.0733337402344	1114.274047851563	-1303.270141601563	-380.5251159667969	1060.911010742188	-1303.188720703125	-417.8621520996095	1051.969482421875	-1231.185302734375	-309.4873657226563	825.386657714844	-1267.885375976563	-345.8465576171876	822.0299072265627	-1322.530517578125	-299.0042114257813	736.0338745117189	-1277.450927734375	-368.2024841308594	1385.842529296875	-885.217468261719	-410.1706848144532	1188.412231445313	-816.6450805664065	-366.8834838867188	1164.587646484375	-812.1209716796877	-407.0375366210939	1118.009033203125	-811.5710449218752	-394.5722961425782	1055.571899414063	-807.8215332031252	-391.5397338867189	1041.547241210938	-888.7361450195315	-294.8747558593751	831.2080078125002	-801.6218872070315	-354.7239990234376	826.6020507812502	-771.3814697265627	-280.1215820312501	759.6480712890626	-767.2438964843751	-274.2917480468751	981.6350708007815	-940.2751464843752	-439.8908081054689	1026.033447265625	-1053.626708984375	-443.4487304687501	994.1276855468752	-1077.762573242188	-448.3765258789064	1000.122985839844	-1021.298034667969	-355.1832885742188	787.0206298828127	-1197.06640625	-331.8781738281251	706.7210083007814	-1188.124877929688	-281.5690002441407	707.4862060546876	-1179.633422851563	-364.0486755371094	658.4576416015626	-1169.062866210938	-372.7810058593751	500.3952636718751	-1130.403686523438	-332.3022155761719	502.9148559570314	-1017.241577148438	-330.6940917968751	364.1205139160157	-1053.322387695313	-357.5769653320313	304.7493286132813	-1112.619384765625	-324.9064941406251	312.5267944335938	-1080.48095703125	-333.8222351074219	237.2798156738282	-1039.686279296875	-383.9250488281251	104.3893814086914	-1076.168334960938	-355.8943786621094	124.9246368408203	-999.381774902344	-441.1262512207032	95.61963653564455	-1025.862182617188	-239.9884796142579	54.49683761596681	-1007.167114257813	-234.5286102294922	49.41630935668947	-1045.406372070313	-256.9765930175782	41.83846664428712	-1095.267456054688	-204.0451812744141	778.126403808594	-859.4755859375002	-137.5931396484375	763.5712280273439	-868.0456542968752	-116.6677322387696	783.8344726562502	-885.754089355469	-107.4623336791992	685.5546264648439	-872.3267211914065	-85.22420501708986	642.4912109375001	-879.5006103515627	-83.47399139404298	628.6942749023439	-993.5355224609377	-110.2232055664063	511.1523437500001	-893.1347656250002	-212.6696472167969	492.0848388671876	-860.1052856445315	-178.5899200439453	461.2535400390626	-872.1318359375002	-200.5383758544922	416.7276000976564	-904.9072265625002	-328.5086059570313	342.0352172851563	-859.110290527344	-310.9259643554688	346.0287475585938	-944.2165527343752	-386.6188964843751	375.0598754882813	-893.5350341796877	-276.2335815429688	213.8231201171876	-955.8484497070315	-262.2063293457032	204.3894805908204	-912.9193115234377	-289.8985290527344	203.4208526611329	-857.0549316406252	-269.4572753906251	949.4028930664065	-1154.0830078125	
1420	7.095	-267.3459777832032	1656.189331054688	-1032.732543945313	-390.2466430664064	1573.14990234375	-1140.839233398438	-391.179901123047	1579.436889648438	-989.0654907226565	-432.0007934570314	1452.102661132813	-1061.396484375	-439.0979309082032	1132.789672851563	-1066.489501953125	-295.1179809570313	1382.19970703125	-1056.978515625	-355.9147644042969	1389.765625	-1241.212280273438	-361.5934753417969	1182.865478515625	-1298.911254882813	-330.6913146972657	1155.891357421875	-1271.359497070313	-362.8313598632813	1114.306030273438	-1303.678100585938	-380.4359741210938	1060.952880859375	-1303.640747070313	-417.6150817871095	1051.882568359375	-1231.705932617188	-309.1653137207032	825.385681152344	-1268.822509765625	-345.3388061523438	822.131774902344	-1323.621459960938	-298.5867309570313	735.9839477539064	-1278.438232421875	-368.3117370605469	1385.82421875	-885.335632324219	-410.2917785644532	1188.438720703125	-816.755798339844	-366.9946594238282	1164.623901367188	-812.1223144531252	-407.1196594238282	1117.980712890625	-811.599060058594	-394.5354614257814	1055.509887695313	-807.7891845703127	-391.3674621582032	1041.392211914063	-888.724304199219	-294.0862731933594	831.5270996093752	-801.5999145507815	-353.8051757812501	826.6873779296877	-771.4146118164065	-278.8284301757813	760.1426391601564	-767.1207885742189	-274.1781005859376	981.5192871093752	-940.1550903320315	-439.6338500976564	1025.868774414063	-1053.485107421875	-443.3203430175782	994.119323730469	-1077.566162109375	-448.164031982422	1000.141296386719	-1021.22802734375	-355.0766296386719	787.0352172851565	-1197.05419921875	-331.7821044921876	706.6537475585939	-1188.03076171875	-281.5323486328126	707.4794311523439	-1179.453857421875	-363.9524841308594	658.4137573242189	-1168.96630859375	-372.9205627441407	500.3937072753907	-1130.337646484375	-332.3350219726563	502.9109191894532	-1017.192810058594	-330.9795227050782	364.2502441406251	-1053.370971679688	-357.6481323242188	304.7891845703126	-1112.564331054688	-325.1666564941407	312.5405273437501	-1080.334106445313	-332.3564453125001	238.3740997314454	-1039.855590820313	-383.8255920410157	104.3776779174805	-1076.142944335938	-355.8958129882813	124.8446731567383	-999.3771972656252	-441.1009216308595	95.60487365722658	-1025.82861328125	-239.9872589111329	54.49338912963869	-1007.169677734375	-234.0175476074219	49.03026580810548	-1045.208374023438	-257.0253906250001	41.81074142456055	-1095.289916992188	-204.9515380859376	776.9370117187502	-859.3220214843752	-138.3200378417969	762.3547363281251	-867.7065429687502	-117.2347106933594	782.1375122070315	-885.5623168945315	-108.9645385742188	683.8230590820314	-871.915954589844	-86.69566345214845	640.6857910156251	-879.1260986328127	-84.82151794433595	626.7772827148439	-993.2672119140627	-112.3931350708008	509.6189575195314	-892.5697021484377	-214.7969970703126	490.9009094238282	-859.2788696289065	-180.7433471679688	459.9802551269532	-871.5313110351565	-202.7250366210938	415.4094543457032	-903.9188232421877	-331.2153625488282	341.5686950683594	-858.1036376953127	-313.6970520019532	345.2386474609376	-943.2119750976565	-389.3869934082032	374.6610412597657	-892.4053344726565	-279.5631103515626	213.1343231201172	-954.862243652344	-265.3285217285157	203.7375030517579	-912.0512695312502	-292.8566284179688	202.8128662109376	-856.0222778320315	-269.2852172851563	949.3785400390627	-1154.0703125	
1421	7.100000000000001	-266.6696472167969	1655.938598632813	-1032.52587890625	-389.8053283691407	1573.313598632813	-1140.993408203125	-391.099578857422	1579.429443359375	-989.6663208007815	-432.0396118164064	1452.086059570313	-1061.547119140625	-438.8194580078126	1132.7099609375	-1066.384765625	-295.0912780761719	1382.134155273438	-1057.028076171875	-355.8854064941407	1389.707763671875	-1241.425903320313	-360.9550476074219	1183.121826171875	-1299.298217773438	-329.6818237304688	1156.199462890625	-1272.066650390625	-362.6507873535157	1114.261474609375	-1304.047973632813	-380.2060241699219	1060.93603515625	-1304.13916015625	-417.378387451172	1051.738403320313	-1232.227905273438	-308.6744384765626	825.3637695312502	-1269.797729492188	-344.9027404785157	822.3438110351565	-1324.64599609375	-297.8641052246094	736.0628662109376	-1279.715942382813	-368.4832458496094	1385.845581054688	-885.4804687500002	-410.3358459472657	1188.416015625	-816.8242187500002	-367.0617980957032	1164.647338867188	-812.205749511719	-407.0999755859376	1117.989990234375	-811.6382446289065	-394.452850341797	1055.499877929688	-807.7203369140627	-391.1780395507814	1041.422729492188	-888.6994628906252	-293.1336059570313	831.9056396484377	-801.4370117187502	-352.8894958496094	826.7685546875002	-771.4017333984377	-277.6123657226563	760.6951904296876	-767.0075073242189	-274.1288146972657	981.882507324219	-940.0532226562502	-439.3641967773439	1025.974609375	-1053.41796875	-443.0744018554689	994.131530761719	-1077.46728515625	-447.8363647460939	1000.096069335938	-1021.174377441406	-354.8796386718751	787.036071777344	-1196.93701171875	-331.5225830078126	706.5898437500001	-1188.021850585938	-281.4121398925782	707.4334106445314	-1179.3125	-363.9721069335938	658.4736328125001	-1168.881958007813	-372.9376220703126	500.3722534179689	-1130.25732421875	-332.3551635742188	502.9012145996095	-1017.031616210938	-330.9408264160157	364.2636718750001	-1053.289916992188	-357.6780090332032	304.8129272460938	-1112.506591796875	-325.5601196289063	312.4777832031251	-1080.141235351563	-332.3858947753907	238.4066009521485	-1039.798095703125	-383.9556579589844	104.3794631958008	-1076.142578125	-355.8789978027344	124.8379592895508	-999.3579711914065	-441.1099243164064	95.59801483154298	-1025.833374023438	-239.9891662597657	54.49164962768556	-1007.161560058594	-234.1200256347657	49.1441993713379	-1045.255004882813	-256.9888610839844	41.8115577697754	-1095.271606445313	-205.5622558593751	776.2068481445315	-859.0586547851565	-139.1234588623047	760.8486938476564	-867.4886474609377	-117.8547439575196	780.767517089844	-885.3065185546877	-110.1194534301758	682.3848876953126	-871.7496337890627	-88.20691680908205	638.9943847656251	-878.691101074219	-85.92146301269533	624.8542480468751	-992.6002197265627	-114.295394897461	507.9066467285157	-891.8615722656252	-216.7476654052735	489.7318725585939	-858.4993286132815	-182.9536743164063	458.5115661621095	-870.6379394531252	-205.4534606933594	414.1371154785157	-903.3442993164065	-333.8236389160157	340.8814086914063	-856.973083496094	-316.4872741699219	344.5957336425782	-942.2397460937502	-391.985321044922	374.0612792968751	-891.0579833984377	-282.6863403320313	212.2936096191407	-954.012634277344	-268.3640136718751	202.9025421142579	-911.1179199218752	-295.6499938964844	202.0906524658204	-854.8699340820315	-269.0286560058594	949.3500976562502	-1153.987915039063	
1422	7.105	-266.0312805175782	1655.360107421875	-1032.348510742188	-389.2457885742189	1573.474853515625	-1141.103759765625	-390.763885498047	1579.647827148438	-989.3142089843752	-431.9565734863282	1452.082153320313	-1061.72705078125	-438.4415283203126	1132.546875	-1066.2861328125	-295.0471191406251	1382.129760742188	-1057.073852539063	-355.8492126464844	1389.680297851563	-1241.467529296875	-361.2137451171876	1182.95556640625	-1299.45751953125	-330.0393981933594	1155.80224609375	-1272.15234375	-362.4257202148438	1114.322143554688	-1304.562133789063	-379.8910827636719	1061.015258789063	-1304.842529296875	-416.9422607421876	1051.72900390625	-1232.794555664063	-308.2021179199219	825.3979492187502	-1270.861083984375	-344.6197509765626	822.3511962890627	-1325.3388671875	-297.3484497070313	736.1804809570314	-1280.830932617188	-368.6149291992188	1385.85888671875	-885.5982666015627	-410.4216308593751	1188.420776367188	-816.9025878906252	-367.1326904296876	1164.66943359375	-812.2060546875002	-407.1025695800782	1118.026977539063	-811.692077636719	-394.4627685546876	1055.503173828125	-807.7612304687502	-391.1887512207032	1041.44580078125	-888.6745605468752	-292.4082031250001	832.035827636719	-801.400573730469	-351.8937988281251	826.8344726562502	-771.340515136719	-276.4318237304688	761.1379394531251	-766.8296508789064	-273.9472656250001	981.7539672851565	-940.0118408203127	-439.1224975585939	1026.066162109375	-1053.3876953125	-442.9732360839845	994.195983886719	-1077.440673828125	-447.6296997070314	1000.078308105469	-1021.113037109375	-354.7187805175782	786.939636230469	-1196.901123046875	-331.3298645019532	706.5897216796876	-1187.941040039063	-281.2932739257813	707.3800048828126	-1179.1796875	-363.9079895019532	658.4393310546876	-1168.82470703125	-372.8929443359376	500.3725891113282	-1130.194213867188	-332.3981018066407	502.7785034179689	-1016.984008789063	-331.0395507812501	364.3307495117188	-1053.245727539063	-357.7069396972657	304.7325744628907	-1112.50439453125	-325.7552490234376	312.5190124511719	-1079.999633789063	-332.7905883789063	238.6387939453126	-1039.911376953125	-383.8866271972657	104.2863006591797	-1076.097290039063	-355.9406433105469	124.8060150146485	-999.3630371093752	-441.1027832031251	95.57412719726564	-1025.829223632813	-239.9449920654297	54.46657180786134	-1007.169494628906	-234.5670623779297	49.36323928833009	-1045.435668945313	-257.6536254882813	42.13483047485352	-1095.486938476563	-206.3941345214844	775.2684326171877	-858.8889160156252	-140.032699584961	759.4030151367189	-867.3853149414065	-118.6561737060547	779.056579589844	-885.0324707031252	-111.67724609375	680.4054565429689	-871.6348876953127	-89.77987670898439	637.2363891601564	-878.277526855469	-87.79141998291017	622.9138183593751	-992.5191650390627	-116.2277145385742	506.3161010742189	-891.277282714844	-218.8285369873047	488.3157958984376	-857.7216796875002	-185.1870269775391	457.1845703125001	-869.9417724609377	-207.6343994140626	412.712371826172	-902.374450683594	-336.1566772460938	340.1781616210938	-855.8225708007815	-319.5728149414063	343.6910095214844	-941.1806640625002	-394.5631713867189	373.2681884765626	-889.7097778320315	-285.6080932617188	211.463851928711	-952.9049072265627	-271.0657958984376	201.9297027587891	-910.0266113281252	-298.0664672851563	201.1848297119141	-853.8341064453127	-268.9312438964844	949.2742309570315	-1153.925048828125	
